<svg xmlns="http://www.w3.org/2000/svg" viewBox="0,0,249.97158,261.75975" fill="#64ffda">
	<g transform="translate(-115.01421,-49.19273)">
		<g>
			<g>
				<path d="M115.01421,278.35053l52.22089,-81.63265l20.40816,30.01201l-12.60504,20.40817z" />
				<path d="M304.96178,247.30645l-12.60504,-20.40817l20.40816,-30.01201l52.22089,81.63265z" />
			</g>
			<path d="M224.5139,170.20728l15.60398,-33.99345l15.60398,33.99345z" stroke-linecap="butt" />
			<path d="M223.65866,242.98762l-8.5093,8.91336l24.59375,31.48804l25.46193,-31.16076l-25.50457,-33.40696l-44.10515,28.37952l27.87896,-52.83126l33.41776,0.07344l33.86913,60.44223l-52.58193,56.06725l-39.02692,-55.5251z" />
			<path d="M229.73876,251.17254l10.01939,-14.32407l9.7689,13.96596l-10.01939,14.32406z" />
			<path d="M196.83701,215.0356l-25.13967,-37.45086l68.87906,-128.39201l68.0516,128.11281l-25.20252,37.95379l-16.95169,-30.60306l9.75098,-13.35133l-36.15362,-72.75728l-35.9988,73.05731l9.60096,12.75128z" />
		</g>
	</g>
</svg>
